<svg xmlns="http://www.w3.org/2000/svg" xmlns:xlink="http://www.w3.org/1999/xlink" width="148.666" height="215.883" viewBox="0 0 148.666 215.883"><defs><clipPath id="a"><rect width="148.666" height="215.883" fill="#fff"></rect></clipPath></defs><g clip-path="url(#a)"><path d="M29.553,9.585c.111,2.018.153,3.557.287,5.088,1.07,12.215,9.812,20.593,22.493,20.84,14.66.287,29.336.316,43.994,0,14.083-.308,21.608-8.831,22.824-25.483,6.164,0,12.5-.718,18.586.21,5.613.857,9.32,5.121,10.411,10.925a45.1,45.1,0,0,1,.51,8.282q.025,82.347-.016,164.694c0,15.063-4.834,19.865-19.958,19.867q-54.7.009-109.4,0C5.092,214,.013,208.9.01,194.634q-.02-82.942,0-165.884c0-14.4,4.8-19.136,19.283-19.163,3.338-.006,6.677,0,10.259,0M118.84,118.008c.538-24.034-18.814-44.582-42.577-45.209-25.6-.673-45.9,18.447-46.417,43.735a44.5,44.5,0,1,0,88.994,1.474" transform="translate(0 1.872)" fill="#fff"></path><path d="M68.355,29.844c-7.327,0-14.658.139-21.98-.042-8.918-.22-14.915-5.969-15.152-14.183C30.978,7.089,36.838.473,45.866.258,60.709-.1,75.573-.069,90.418.238,99.474.424,105.431,6.915,105.28,15.4c-.151,8.466-6.251,14.23-15.538,14.418-7.126.143-14.258.027-21.386.023" transform="translate(6.097 0)" fill="#fff"></path><path d="M105.293,105.92A37.045,37.045,0,1,1,68.557,68.549a37.132,37.132,0,0,1,36.737,37.371m-36.944,6.223C61.6,105.274,55.78,99.06,49.573,93.258a3.054,3.054,0,0,0-1.3-.667,3.621,3.621,0,0,0-4.461,4.251,2.7,2.7,0,0,0,.6,1.267c6.465,6.967,13.368,13.527,20.03,20.317a5.313,5.313,0,0,0,7.585,0c6.52-6.641,13.3-13.041,19.6-19.879a2.9,2.9,0,0,0,.512-.807,3.614,3.614,0,0,0-4.8-4.628,3.215,3.215,0,0,0-.858.563c-6.051,5.675-11.677,11.8-18.139,18.469" transform="translate(6.095 13.388)" fill="#291b15"></path></g></svg>