<svg xmlns="http://www.w3.org/2000/svg" width="29.444" height="29.445" viewBox="0 0 29.444 29.445">
  <g id="Grupo_106" data-name="Grupo 106" transform="translate(29.444) rotate(90)">
    <g id="Grupo_105" data-name="Grupo 105">
      <path id="Trazado_14" data-name="Trazado 14" d="M1.726,0A1.726,1.726,0,1,0,3.452,1.726,1.726,1.726,0,0,0,1.726,0Z" transform="translate(20.792 5.257)" fill="#fff"/>
      <path id="Trazado_15" data-name="Trazado 15" d="M7.252,0A7.251,7.251,0,1,0,14.5,7.252,7.26,7.26,0,0,0,7.252,0Zm0,11.9A4.645,4.645,0,1,1,11.9,7.252,4.65,4.65,0,0,1,7.252,11.9Z" transform="translate(7.591 7.471)" fill="#fff"/>
      <path id="Trazado_16" data-name="Trazado 16" d="M20.6,29.444H8.844A8.853,8.853,0,0,1,0,20.6V8.844A8.854,8.854,0,0,1,8.844,0H20.6a8.855,8.855,0,0,1,8.845,8.844V20.6A8.855,8.855,0,0,1,20.6,29.444ZM8.844,2.77A6.08,6.08,0,0,0,2.77,8.844V20.6a6.081,6.081,0,0,0,6.073,6.074H20.6A6.081,6.081,0,0,0,26.674,20.6V8.844A6.081,6.081,0,0,0,20.6,2.77Z" fill="#fff"/>
    </g>
  </g>
</svg>
