<svg id="Capa_1" data-name="Capa 1" xmlns="http://www.w3.org/2000/svg" xmlns:xlink="http://www.w3.org/1999/xlink" viewBox="0 0 238.52 34.51"><defs><style>.cls-1{fill:#fff;}.cls-2{clip-path:url(#clip-path);}.cls-3{clip-path:url(#clip-path-2);}.cls-4{clip-path:url(#clip-path-3);}.cls-5{clip-path:url(#clip-path-4);}.cls-6{clip-path:url(#clip-path-5);}.cls-7{clip-path:url(#clip-path-6);}.cls-8{clip-path:url(#clip-path-7);}.cls-9{clip-path:url(#clip-path-8);}.cls-10{clip-path:url(#clip-path-9);}.cls-11{clip-path:url(#clip-path-10);}.cls-12{clip-path:url(#clip-path-11);}.cls-13{clip-path:url(#clip-path-12);}.cls-14{clip-path:url(#clip-path-13);}.cls-15{clip-path:url(#clip-path-14);}</style><clipPath id="clip-path"><path class="cls-1" d="M99.34,26l4.12-.24c1.78-.1,2.65.56,2.73,1.61v.05c.09,1.14-.78,1.83-2.38,1.94l-4.16.29c-.1-1.22-.21-2.43-.31-3.65m-.64-7.33,3.56-.12c1.61-.05,2.49.54,2.57,1.59v.06c.09,1.13-.78,1.72-2.41,1.8L99,22.11l-.3-3.48m4.44-4.5c-3.45,0-6.91.14-10.36.24q.94,10.06,1.9,20.14c3.36-.32,6.72-.62,10.08-.88,4.44-.36,6.85-2.51,6.62-5.79v-.05c-.18-2.59-1.69-3.84-4-4.51a4.26,4.26,0,0,0,2.57-4.37v-.06a4.48,4.48,0,0,0-1.43-3.07,7.19,7.19,0,0,0-5.12-1.66h-.24"/></clipPath><clipPath id="clip-path-2"><path class="cls-1" d="M112.76,14q.64,9.45,1.27,18.91,6.87-.45,13.75-.78c-.07-1.42-.14-2.84-.2-4.25-3,.09-6,.21-9,.34-.06-1-.12-2-.17-2.95q4-.14,8.12-.23c-.07-1.32-.13-2.64-.2-4-2.72,0-5.44.07-8.17.12-.06-.94-.11-1.88-.17-2.82,3,0,6-.05,9,0-.07-1.42-.14-2.84-.2-4.26Q121.08,14,115.35,14h-2.59"/></clipPath><clipPath id="clip-path-3"><path class="cls-1" d="M130.05,32.06q6.15-.29,12.31-.44c0-1.35-.07-2.69-.1-4q-4,0-8.08.13c0-.93-.07-1.86-.11-2.79q3.65,0,7.27-.05c0-1.26-.06-2.51-.1-3.76-2.44,0-4.88,0-7.31,0,0-.89-.07-1.78-.11-2.67q4.05,0,8.09.13c0-1.34-.07-2.69-.11-4q-6.27-.24-12.54-.35.39,8.94.79,17.9"/></clipPath><clipPath id="clip-path-4"><path class="cls-1" d="M150.68,22.83l-2.54,0c0-1.34,0-2.68-.07-4l2.54.09a1.91,1.91,0,0,1,2.08,2v0a1.76,1.76,0,0,1-1.94,1.91h-.07m-6.28,8.74,3.9-.08-.09-5.07h1.68c1,1.67,1.88,3.33,2.81,5l4.21,0c-1-1.89-2.11-3.79-3.18-5.68a5.11,5.11,0,0,0,2.69-4.94v0a5.89,5.89,0,0,0-1.21-3.83,5.68,5.68,0,0,0-4.46-2q-3.37-.17-6.75-.3.19,8.49.4,17"/></clipPath><clipPath id="clip-path-5"><path class="cls-1" d="M171.92,14.53c-4.27.19-7.36,4-7.38,8.76v.05c0,4.83,3.05,8.37,7,8.43,3.11,0,5-1.53,6.38-3.7l-3-2.52c-.88,1.22-1.77,2-3.24,2-1.94,0-3.28-1.91-3.25-4.37v-.05c0-2.39,1.41-4.38,3.39-4.43a3.53,3.53,0,0,1,3.09,1.87L178,17.82a6.39,6.39,0,0,0-5.74-3.29h-.36"/></clipPath><clipPath id="clip-path-6"><path class="cls-1" d="M180,14.57q-.22,8.52-.44,17c3.87.1,7.74.22,11.61.38l.18-4.29q-3.77-.11-7.53-.16.19-6.54.41-13.06l-4.23.11"/></clipPath><clipPath id="clip-path-7"><path class="cls-1" d="M203.58,24.56c-.15,2.56-1.47,3.71-3.36,3.63s-3-1.35-2.88-3.94l.51-10-4.69,0c-.15,3.32-.29,6.64-.44,10-.24,5.55,2.53,8.22,7.2,8.48,4.83.26,8.2-2.14,8.61-8.15.23-3.43.46-6.87.68-10.3l-5,0q-.3,5.16-.61,10.32"/></clipPath><clipPath id="clip-path-8"><path class="cls-1" d="M220.15,29.45l-4-.27.27-3.5,4,.22c1.78.11,2.55.86,2.46,1.91v.05c-.09,1-.93,1.61-2.31,1.61l-.38,0M220,22.13,216.68,22c.09-1.11.18-2.22.26-3.34l3.43.12c1.61.07,2.39.71,2.3,1.76v.05c-.09,1.06-.93,1.57-2.36,1.57H220M210.9,33.07q4.74.33,9.48.72c4.57.38,7.5-1.41,7.83-4.78V29c.26-2.67-1.15-4.13-3.48-5.05a4.77,4.77,0,0,0,3.46-4.19v0a4,4,0,0,0-1-3.22c-1.06-1.19-2.77-1.86-5.24-1.93q-4.87-.13-9.73-.21L210.9,33.07"/></clipPath><clipPath id="clip-path-9"><polygon class="cls-1" points="89.06 21.43 89.24 20.73 82.49 19.4 89.06 21.43"/></clipPath><clipPath id="clip-path-10"><polygon class="cls-1" points="83.46 31.63 89.24 30.51 89.06 29.81 83.46 31.63"/></clipPath><clipPath id="clip-path-11"><polygon class="cls-1" points="83.67 25.67 88.34 25.9 88.32 25.18 83.67 25.67"/></clipPath><clipPath id="clip-path-12"><polygon class="cls-1" points="231.78 20.73 231.96 21.43 238.52 19.4 231.78 20.73"/></clipPath><clipPath id="clip-path-13"><polygon class="cls-1" points="231.78 30.51 237.56 31.63 231.96 29.81 231.78 30.51"/></clipPath><clipPath id="clip-path-14"><polygon class="cls-1" points="232.68 25.9 237.35 25.67 232.7 25.18 232.68 25.9"/></clipPath></defs><path class="cls-1" d="M37.67,25.46c5.49,0,9.93,1.35,9.93,3s-4.44,3-9.93,3-9.93-1.34-9.93-3,4.44-3,9.93-3"/><path class="cls-1" d="M37.67,1.07c6.64,0,12.25,4,14.09,9.47a107.13,107.13,0,0,0-14.09-.9,107.13,107.13,0,0,0-14.09.9C25.42,5.06,31,1.07,37.67,1.07"/><path class="cls-1" d="M37.67,11c20.8,0,37.67,4.59,37.67,10.24,0,0,0,.05,0,.08a3.77,3.77,0,0,0-.58-.87,1.68,1.68,0,0,0-.18-.21,3.84,3.84,0,0,0-.28-.3c-4.44-4.31-19-7.48-36.27-7.48-13.4,0-25.17,1.91-31.85,4.78C2.53,18.81.4,20.66.36,22.65a3.21,3.21,0,0,1-.33-1,2.73,2.73,0,0,1,0-.41C0,15.6,16.87,11,37.67,11"/><path class="cls-1" d="M25.89,33.43C11.24,32.09.69,28.31.69,23.85a2.55,2.55,0,0,1,0-.39c.26-1.89,2.44-3.66,6-5.15,6.61-2.75,18-4.56,30.92-4.56,17.42,0,32,3.28,36,7.71l.28.35c.06.09.13.17.18.25a3.25,3.25,0,0,1,.58,1.79c0,4.46-10.56,8.24-25.21,9.58,5.17-1.18,8.53-3.12,8.53-5.3,0-3.6-9.1-6.51-20.31-6.51s-20.31,2.91-20.31,6.51c0,2.18,3.37,4.12,8.53,5.3M55.78,19.94c.1-.45-.56-1-1.48-1.21s-1.76,0-1.86.46.56,1,1.48,1.21,1.76,0,1.86-.46m-16.4-2.43c0-.47-.76-.85-1.71-.85S36,17,36,17.51s.77.86,1.71.86,1.71-.38,1.71-.86M22.11,20.4c.92-.21,1.58-.75,1.48-1.21s-.94-.66-1.86-.46-1.59.76-1.48,1.21.93.67,1.86.46"/><path class="cls-1" d="M110.58,11.13a5.35,5.35,0,0,1-5.35-5.53v0A5.41,5.41,0,0,1,110.61,0a5.7,5.7,0,0,1,4.19,1.72l-.57.59A5,5,0,0,0,110.6.72a4.61,4.61,0,0,0-4.54,4.82v0a4.64,4.64,0,0,0,4.55,4.84,4.92,4.92,0,0,0,3.71-1.68l.54.53A5.69,5.69,0,0,1,110.58,11.13Z"/><path class="cls-1" d="M124.81,11l-3.43-4.46h-3.52V11h-.8V.18h4.52c2.32,0,3.84,1.27,3.84,3.06v0c0,1.79-1.34,2.82-3.15,3.07l3.55,4.6Zm-.19-7.67c0-1.45-1.14-2.36-3.09-2.36h-3.67V5.77h3.63c1.79,0,3.13-.91,3.13-2.46Z"/><path class="cls-1" d="M132.11,6.67V11h-.8V6.69L126.7.18h1l4,5.79,4-5.79h.95Z"/><path class="cls-1" d="M142.52,6.93h-2.9v4h-.8V.18h3.9c2.37,0,4,1.22,4,3.3v0C146.72,5.77,144.77,6.93,142.52,6.93Zm3.4-3.41c0-1.71-1.32-2.6-3.26-2.6h-3V6.2h2.95c2,0,3.35-1,3.35-2.65Z"/><path class="cls-1" d="M152.87.92V11h-.8V.92h-3.75V.18h8.3V.92Z"/><path class="cls-1" d="M163.13,11.13a5.37,5.37,0,0,1-5.4-5.53v0A5.42,5.42,0,0,1,163.16,0a5.36,5.36,0,0,1,5.39,5.54s0,0,0,0A5.41,5.41,0,0,1,163.13,11.13Zm4.59-5.56a4.59,4.59,0,1,0-9.16,0v0a4.66,4.66,0,0,0,4.6,4.84,4.6,4.6,0,0,0,4.56-4.81Z"/><path class="cls-1" d="M179.67,11l-1.37-3H172l-1.37,3h-.83l5-10.84h.77l5,10.84ZM175.14,1l-2.85,6.23H178Z"/><path class="cls-1" d="M182.82,11V.18h.8v10h6.32V11Z"/><path class="cls-1" d="M192.45,11V.18h.8V11Z"/><path class="cls-1" d="M196.56,11V.18h7.65V.92h-6.85V5.15h6.16v.74h-6.16v4.32h6.93V11Z"/><path class="cls-1" d="M215.21,11l-7.58-9.57V11h-.77V.18h.75L215,9.55V.18h.77V11Z"/><path class="cls-1" d="M99.34,26l4.12-.24c1.78-.1,2.65.56,2.73,1.61v.05c.09,1.14-.78,1.83-2.38,1.94l-4.16.29c-.1-1.22-.21-2.43-.31-3.65m-.64-7.33,3.56-.12c1.61-.05,2.49.54,2.57,1.59v.06c.09,1.13-.78,1.72-2.41,1.8L99,22.11l-.3-3.48m4.44-4.5c-3.45,0-6.91.14-10.36.24q.94,10.06,1.9,20.14c3.36-.32,6.72-.62,10.08-.88,4.44-.36,6.85-2.51,6.62-5.79v-.05c-.18-2.59-1.69-3.84-4-4.51a4.26,4.26,0,0,0,2.57-4.37v-.06a4.48,4.48,0,0,0-1.43-3.07,7.19,7.19,0,0,0-5.12-1.66h-.24"/><g class="cls-2"><rect class="cls-1" x="92.78" y="14.12" width="18.83" height="20.38"/></g><path class="cls-1" d="M112.76,14q.64,9.45,1.27,18.91,6.87-.45,13.75-.78c-.07-1.42-.14-2.84-.2-4.25-3,.09-6,.21-9,.34-.06-1-.12-2-.17-2.95q4-.14,8.12-.23c-.07-1.32-.13-2.64-.2-4-2.72,0-5.44.07-8.17.12-.06-.94-.11-1.88-.17-2.82,3,0,6-.05,9,0-.07-1.42-.14-2.84-.2-4.26Q121.08,14,115.35,14h-2.59"/><g class="cls-3"><rect class="cls-1" x="112.76" y="14.02" width="15.01" height="18.92"/></g><path class="cls-1" d="M130.05,32.06q6.15-.29,12.31-.44c0-1.35-.07-2.69-.1-4q-4,0-8.08.13c0-.93-.07-1.86-.11-2.79q3.65,0,7.27-.05c0-1.26-.06-2.51-.1-3.76-2.44,0-4.88,0-7.31,0,0-.89-.07-1.78-.11-2.67q4.05,0,8.09.13c0-1.34-.07-2.69-.11-4q-6.27-.24-12.54-.35.39,8.94.79,17.9"/><g class="cls-4"><rect class="cls-1" x="129.26" y="14.16" width="13.11" height="17.9"/></g><path class="cls-1" d="M150.68,22.83l-2.54,0c0-1.34,0-2.68-.07-4l2.54.09a1.91,1.91,0,0,1,2.08,2v0a1.76,1.76,0,0,1-1.94,1.91h-.07m-6.28,8.74,3.9-.08-.09-5.07h1.68c1,1.67,1.88,3.33,2.81,5l4.21,0c-1-1.89-2.11-3.79-3.18-5.68a5.11,5.11,0,0,0,2.69-4.94v0a5.89,5.89,0,0,0-1.21-3.83,5.68,5.68,0,0,0-4.46-2q-3.37-.17-6.75-.3.19,8.49.4,17"/><g class="cls-5"><rect class="cls-1" x="144" y="14.59" width="12.92" height="16.98"/></g><path class="cls-1" d="M171.92,14.53c-4.27.19-7.36,4-7.38,8.76v.05c0,4.83,3.05,8.37,7,8.43,3.11,0,5-1.53,6.38-3.7l-3-2.52c-.88,1.22-1.77,2-3.24,2-1.94,0-3.28-1.91-3.25-4.37v-.05c0-2.39,1.41-4.38,3.39-4.43a3.53,3.53,0,0,1,3.09,1.87L178,17.82a6.39,6.39,0,0,0-5.74-3.29h-.36"/><g class="cls-6"><rect class="cls-1" x="164.53" y="14.53" width="13.49" height="17.29"/></g><path class="cls-1" d="M180,14.57q-.22,8.52-.44,17c3.87.1,7.74.22,11.61.38l.18-4.29q-3.77-.11-7.53-.16.19-6.54.41-13.06l-4.23.11"/><g class="cls-7"><rect class="cls-1" x="179.54" y="14.46" width="11.8" height="17.52"/></g><path class="cls-1" d="M203.58,24.56c-.15,2.56-1.47,3.71-3.36,3.63s-3-1.35-2.88-3.94l.51-10-4.69,0c-.15,3.32-.29,6.64-.44,10-.24,5.55,2.53,8.22,7.2,8.48,4.83.26,8.2-2.14,8.61-8.15.23-3.43.46-6.87.68-10.3l-5,0q-.3,5.16-.61,10.32"/><g class="cls-8"><rect class="cls-1" x="192.48" y="14.24" width="16.73" height="18.75"/></g><path class="cls-1" d="M220.15,29.45l-4-.27.27-3.5,4,.22c1.78.11,2.55.86,2.46,1.91v.05c-.09,1-.93,1.61-2.31,1.61l-.38,0M220,22.13,216.68,22c.09-1.11.18-2.22.26-3.34l3.43.12c1.61.07,2.39.71,2.3,1.76v.05c-.09,1.06-.93,1.57-2.36,1.57H220M210.9,33.07q4.74.33,9.48.72c4.57.38,7.5-1.41,7.83-4.78V29c.26-2.67-1.15-4.13-3.48-5.05a4.77,4.77,0,0,0,3.46-4.19v0a4,4,0,0,0-1-3.22c-1.06-1.19-2.77-1.86-5.24-1.93q-4.87-.13-9.73-.21L210.9,33.07"/><g class="cls-9"><rect class="cls-1" x="210.9" y="14.31" width="17.57" height="19.86"/></g><polygon class="cls-1" points="89.06 21.43 89.24 20.73 82.49 19.4 89.06 21.43"/><g class="cls-10"><rect class="cls-1" x="82.49" y="19.4" width="6.74" height="2.03"/></g><polygon class="cls-1" points="83.46 31.63 89.24 30.51 89.06 29.81 83.46 31.63"/><g class="cls-11"><rect class="cls-1" x="83.46" y="29.81" width="5.78" height="1.82"/></g><polygon class="cls-1" points="83.67 25.67 88.34 25.9 88.32 25.18 83.67 25.67"/><g class="cls-12"><rect class="cls-1" x="83.67" y="25.18" width="4.67" height="0.72"/></g><polygon class="cls-1" points="231.78 20.73 231.96 21.43 238.52 19.4 231.78 20.73"/><g class="cls-13"><rect class="cls-1" x="231.78" y="19.4" width="6.74" height="2.03"/></g><polygon class="cls-1" points="231.78 30.51 237.56 31.63 231.96 29.81 231.78 30.51"/><g class="cls-14"><rect class="cls-1" x="231.78" y="29.81" width="5.78" height="1.82"/></g><polygon class="cls-1" points="232.68 25.9 237.35 25.67 232.7 25.18 232.68 25.9"/><g class="cls-15"><rect class="cls-1" x="232.68" y="25.18" width="4.67" height="0.72"/></g></svg>