<svg xmlns="http://www.w3.org/2000/svg" width="25.83" height="22.799" viewBox="0 0 25.83 22.799">
  <g id="Capa_2" data-name="Capa 2" transform="translate(-139.999 17.55)">
    <g id="Capa_1" data-name="Capa 1" transform="translate(139.999 -17.55)">
      <path id="Trazado_209" data-name="Trazado 209" d="M25.828,4.206V19.794a3.117,3.117,0,0,1-.124.886v0a2.933,2.933,0,0,1-2.884,2.087H2.987c-.059,0-.156,0-.215-.008A2.856,2.856,0,0,1,.315,21.15a2.3,2.3,0,0,1-.134-.327A3.746,3.746,0,0,1,0,19.649V1.286A1.463,1.463,0,0,1,.278.413C.53.072.849-.025,1.459-.025H21.436c.1,0,.2,0,.3,0a1.177,1.177,0,0,1,1.164,1.2c0,.235,0,.471,0,.706V2.9h1.47c.615,0,.932.095,1.181.436A1.471,1.471,0,0,1,25.828,4.206ZM1.163,1.153v18.53A1.79,1.79,0,0,0,3.08,21.607H22.751a2.416,2.416,0,0,0,.3-.017,1.759,1.759,0,0,0,1.611-1.858q0-7.7,0-15.409c0-.08-.008-.16-.012-.237H22.9V18.752c0,.422.016.442.428.54a.532.532,0,0,1,.422.416.548.548,0,0,1-.194.587.764.764,0,0,1-.72.084,1.454,1.454,0,0,1-1.1-1.524V1.152Z" transform="translate(0.001 0.027)" fill="#fff"/>
      <path id="Trazado_210" data-name="Trazado 210" d="M73,127.55h2.747c.6,0,.8.2.8.8v5.469c0,.59-.215.807-.8.807q-2.747,0-5.495,0a1.17,1.17,0,0,1-.442-.068.6.6,0,0,1-.341-.622q0-2.86.006-5.721c0-.454.227-.656.7-.659.941,0,1.882,0,2.825,0Zm2.359,1.189h-4.7v4.7h4.7Z" transform="translate(-65.965 -121.114)" fill="#fff"/>
      <path id="Trazado_211" data-name="Trazado 211" d="M77.675,69.69h7.063c.118,0,.236,0,.353.01a.555.555,0,0,1,.514.523.537.537,0,0,1-.427.593,1.393,1.393,0,0,1-.322.04q-7.186,0-14.374,0c-.49,0-.761-.227-.745-.616a.555.555,0,0,1,.525-.543c.176-.013.353-.009.529-.009Z" transform="translate(-66.218 -66.171)" fill="#fff"/>
      <path id="Trazado_212" data-name="Trazado 212" d="M248.167,244.359H245.4a.675.675,0,0,1-.656-.281.573.573,0,0,1,.344-.858,1.686,1.686,0,0,1,.374-.038q2.721,0,5.441,0a1.853,1.853,0,0,1,.373.038.569.569,0,0,1-.007,1.107,2.071,2.071,0,0,1-.375.03C249.98,244.36,249.073,244.359,248.167,244.359Z" transform="translate(-232.312 -230.911)" fill="#fff"/>
      <path id="Trazado_213" data-name="Trazado 213" d="M248.225,185.36h2.8c.454,0,.693.181.725.527a.541.541,0,0,1-.461.614,1.525,1.525,0,0,1-.3.033q-2.771,0-5.542,0c-.449,0-.692-.177-.734-.52a.529.529,0,0,1,.468-.628,8.849,8.849,0,0,1,.9-.029c.714,0,1.428,0,2.142,0Z" transform="translate(-232.361 -176.005)" fill="#fff"/>
      <path id="Trazado_214" data-name="Trazado 214" d="M248.016,127.572h2.8a.673.673,0,0,1,.656.286.572.572,0,0,1-.335.844,1.408,1.408,0,0,1-.347.042c-1.847,0-3.694.009-5.54-.007a1.1,1.1,0,0,1-.594-.2.488.488,0,0,1-.12-.578.509.509,0,0,1,.466-.366c.31-.016.62-.017.93-.018C246.622,127.57,247.319,127.572,248.016,127.572Z" transform="translate(-232.155 -121.134)" fill="#fff"/>
      <path id="Trazado_215" data-name="Trazado 215" d="M73.2,302.273H70.382a.623.623,0,0,1-.643-.345.568.568,0,0,1,.357-.783,1.379,1.379,0,0,1,.347-.044q2.77,0,5.541,0c.442,0,.682.16.74.485a.536.536,0,0,1-.5.669c-.454.026-.908.017-1.359.019C74.311,302.274,73.757,302.273,73.2,302.273Z" transform="translate(-66.172 -285.907)" fill="#fff"/>
      <path id="Trazado_216" data-name="Trazado 216" d="M248.133,302.317c-.94,0-1.881,0-2.821,0-.449,0-.706-.252-.677-.625a.541.541,0,0,1,.42-.5,1.337,1.337,0,0,1,.322-.041q2.783,0,5.565,0c.446,0,.7.182.733.521a.545.545,0,0,1-.5.634,1.811,1.811,0,0,1-.252.016Z" transform="translate(-232.292 -285.951)" fill="#fff"/>
      <path id="Trazado_217" data-name="Trazado 217" d="M73.045,360.192h-2.9a.548.548,0,0,1-.543-.335.5.5,0,0,1,.085-.605.871.871,0,0,1,.508-.216c1.914-.016,3.828-.013,5.742-.008a.58.58,0,0,1,.644.476.535.535,0,0,1-.325.632,1.323,1.323,0,0,1-.443.056c-.923,0-1.847,0-2.77,0Z" transform="translate(-66.033 -340.91)" fill="#fff"/>
      <path id="Trazado_218" data-name="Trazado 218" d="M248.211,360.2c-.959,0-1.917,0-2.876,0a.57.57,0,0,1-.632-.7.593.593,0,0,1,.633-.462c.3-.009.605,0,.908,0,1.581,0,3.162-.006,4.742.009a1.087,1.087,0,0,1,.58.179.493.493,0,0,1,.137.6.524.524,0,0,1-.49.373c-.227.01-.454.01-.681.01Z" transform="translate(-232.346 -340.916)" fill="#fff"/>
    </g>
  </g>
</svg>
