<svg xmlns="http://www.w3.org/2000/svg" width="20.943" height="29.919" viewBox="0 0 20.943 29.919">
  <g id="Grupo_108" data-name="Grupo 108" transform="translate(-132.824 -906.253)">
    <path id="Trazado_21" data-name="Trazado 21" d="M29.919,6.565A6.565,6.565,0,0,0,23.353,0H6.565A6.565,6.565,0,0,0,0,6.565v7.813a6.565,6.565,0,0,0,6.565,6.565H23.353a6.565,6.565,0,0,0,6.566-6.565Zm-9.873,4.491-7.529,3.725c-.295.16-1.3-.054-1.3-.389V6.747c0-.34,1.011-.553,1.306-.385l7.207,3.92C20.034,10.454,20.351,10.892,20.046,11.057Z" transform="translate(153.767 906.253) rotate(90)" fill="#fff"/>
  </g>
</svg>
